PathFileType	4	(X/Y/Z)	/Users/itak/Documents/Research/Walk-IL/dataset/trc/00213_00009.trc
DataRate	CameraRate	NumFrames	NumMarkers	Units	OrigDataRate	OrigDataStartFrame	OrigNumFrames
100.000000	100.000000	4	55	mm	100.000000	261	418
Frame#	Time	RPSI			LPSI			L3			STRN			T10			C7			CLAV			RBAK			LBAK			LSHO			LUPA			LAEL			LAOL			LWTS			LWPS			LFRA			LIFD			LHPS			LHTS			RSHO			RUPA			RAEL			RAOL			RWTS			RWPS			RFRA			RIFD			RHTS			RHPS			RBHD			LFHD			RFHD			LBHD			LHIP			RHIP			RASI			LASI			LKNE			LTHI			LANK			LTIP			LTOE			LMT1			LMT5			LHEE			RKNE			RTHI			RANK			RTIP			RTOE			RMT1			RMT5			RHEE			*53			*54			
		X1	Y1	Z1	X2	Y2	Z2	X3	Y3	Z3	X4	Y4	Z4	X5	Y5	Z5	X6	Y6	Z6	X7	Y7	Z7	X8	Y8	Z8	X9	Y9	Z9	X10	Y10	Z10	X11	Y11	Z11	X12	Y12	Z12	X13	Y13	Z13	X14	Y14	Z14	X15	Y15	Z15	X16	Y16	Z16	X17	Y17	Z17	X18	Y18	Z18	X19	Y19	Z19	X20	Y20	Z20	X21	Y21	Z21	X22	Y22	Z22	X23	Y23	Z23	X24	Y24	Z24	X25	Y25	Z25	X26	Y26	Z26	X27	Y27	Z27	X28	Y28	Z28	X29	Y29	Z29	X30	Y30	Z30	X31	Y31	Z31	X32	Y32	Z32	X33	Y33	Z33	X34	Y34	Z34	X35	Y35	Z35	X36	Y36	Z36	X37	Y37	Z37	X38	Y38	Z38	X39	Y39	Z39	X40	Y40	Z40	X41	Y41	Z41	X42	Y42	Z42	X43	Y43	Z43	X44	Y44	Z44	X45	Y45	Z45	X46	Y46	Z46	X47	Y47	Z47	X48	Y48	Z48	X49	Y49	Z49	X50	Y50	Z50	X51	Y51	Z51	X52	Y52	Z52	X53	Y53	Z53	X54	Y54	Z54	X55	Y55	Z55	

262	2.61	-117.4323043823242	1006.7958984375	-155.1459503173828	-109.7173690795898	1000.74169921875	-273.5191040039062	-113.47802734375	1096.073974609375	-221.2873077392578	148.2699127197266	1276.858276367188	-222.5017395019531	-114.9823455810547	1224.186767578125	-209.72998046875	-39.95232772827148	1481.561645507812	-205.0535888671875	125.0061264038086	1395.979614257812	-215.8062438964844	-118.4142303466797	1345.68798828125	-129.1138916015625	-66.6087646484375	1453.621948242188	-312.8161010742188	20.0045280456543	1455.90869140625	-374.1528015136719	-43.17444610595703	1354.131591796875	-454.1193237304688	-98.06119537353516	1161.422973632812	-503.9789123535156	-157.7603912353516	1153.1025390625	-438.9423522949219	-62.92543411254883	906.8897705078125	-507.3261413574219	-114.5982131958008	911.9570922851562	-573.6397094726562	-110.6369552612305	1057.237182617188	-536.8184814453125	-126.894660949707	722.4199829101562	-533.0787353515625	-127.4096527099609	823.1898803710938	-582.5585327148438	-72.37750244140625	804.3065185546875	-547.1466064453125	24.9035758972168	1438.827880859375	-44.32435989379883	13.76334857940674	1376.626586914062	24.80075263977051	43.69733810424805	1102.681274414062	88.11946868896484	-6.636871337890625	1081.458862304688	8.549092292785645	223.8894653320312	937.4533081054688	9.122050285339355	196.1029968261719	908.9478149414062	83.54544067382812	90.87810516357422	1043.605834960938	94.20431518554688	293.6106567382812	765.4834594726562	-10.82609272003174	307.2412719726562	840.6350708007812	11.64845848083496	270.9651794433594	823.1456298828125	71.68817901611328	-12.79236221313477	1627.015014648438	-159.0768737792969	190.1361846923828	1678.386962890625	-247.4681243896484	186.8662719726562	1675.278564453125	-147.6614074707031	35.41744232177734	1638.317138671875	-290.1315307617188	6.198700428009033	938.4452514648438	-399.8534240722656	-30.26350975036621	972.6839599609375	-37.48200607299805	70.81551361083984	1012.223083496094	-66.23229217529297	98.50485992431641	986.8031005859375	-342.5056762695312	230.4775695800781	507.7799072265625	-360.6038208007812	155.0218048095703	630.5958862304688	-398.2252502441406	379.4007568359375	38.44789886474609	-345.3211669921875	285.1849670410156	286.470947265625	-365.6046142578125	557.168212890625	148.6917877197266	-293.4435424804688	500.5927124023438	116.2453079223633	-250.1140289306641	494.8101501464844	88.14839172363281	-359.2652893066406	316.2845764160156	25.99854469299316	-297.2847595214844	-95.90658569335938	494.8949279785156	-85.26197814941406	-5.144472122192383	745.9586791992188	-28.39596366882324	-318.843505859375	51.60248947143555	-137.6902770996094	-128.0956573486328	377.431396484375	-111.2404632568359	-111.1564331054688	38.23231887817383	-187.1774139404297	-168.0834655761719	41.14365005493164	-225.5478057861328	-211.4576873779297	33.30475234985352	-112.2646331787109	-382.5652465820312	68.99385070800781	-192.3877105712891	nan	nan	nan	nan	nan	nan	
263	2.62	-104.4466171264648	1004.633178710938	-156.4346313476562	-96.62457275390625	998.449951171875	-274.7671813964844	-100.7912521362305	1093.648315429688	-222.507080078125	160.3595733642578	1275.000244140625	-223.4887542724609	-102.6124496459961	1221.781616210938	-211.1780548095703	-28.42196464538574	1479.30615234375	-206.7281799316406	136.8186645507812	1394.063110351562	-217.1004028320312	-106.6808319091797	1343.415893554688	-130.6572418212891	-54.91376113891602	1451.012573242188	-314.4783935546875	31.74834632873535	1453.25390625	-375.7617492675781	-31.10223960876465	1351.001831054688	-455.4074096679688	-85.42864227294922	1157.806884765625	-504.5327758789062	-145.3818817138672	1149.89453125	-439.6785278320312	-51.53707885742188	902.9907836914062	-506.3544616699219	-102.7239608764648	908.0615844726562	-573.0294189453125	-98.18101501464844	1053.511840820312	-536.87841796875	-117.8067626953125	719.0590209960938	-530.9452514648438	-116.5078125	819.3792114257812	-581.3043823242188	-61.98440551757812	800.0745239257812	-545.3317260742188	36.35087585449219	1436.956665039062	-45.77457046508789	25.17021179199219	1374.664672851562	23.37984085083008	55.31411361694336	1100.702758789062	86.56989288330078	5.062292098999023	1079.427856445312	6.750661849975586	235.9871826171875	935.9398803710938	7.46678638458252	208.2181396484375	907.297607421875	81.83545684814453	102.6349105834961	1041.700927734375	92.69388580322266	306.1900329589844	764.0861206054688	-12.52961254119873	319.5088806152344	839.3013916015625	9.971451759338379	283.2503662109375	821.685546875	69.97940826416016	-1.37927234172821	1625.0908203125	-160.7856597900391	201.5500640869141	1676.533569335938	-249.0645141601562	198.1901245117188	1673.504638671875	-149.2418212890625	46.89938354492188	1636.328002929688	-291.8360900878906	19.84074974060059	936.2001953125	-400.6241455078125	-17.64671325683594	970.7230224609375	-38.46876907348633	83.50945281982422	1010.292236328125	-66.69047546386719	111.7585983276367	984.701904296875	-343.0043029785156	244.9917297363281	506.30126953125	-359.2649841308594	169.5388946533203	628.7073364257812	-397.7666015625	390.4893188476562	36.54736709594727	-342.8252258300781	298.8619384765625	284.5863037109375	-363.4423828125	569.0438232421875	144.3385314941406	-288.6520385742188	511.3929138183594	112.4797973632812	-245.8475189208984	506.5714721679688	84.40476989746094	-354.9425659179688	326.5252380371094	25.18306541442871	-295.3870544433594	-87.44410705566406	494.1998901367188	-84.97571563720703	6.066878318786621	744.4022216796875	-28.78135871887207	-317.9844055175781	53.8667106628418	-136.9597015380859	-121.488525390625	376.9941101074219	-110.8881607055664	-111.0336990356445	38.15837097167969	-187.0268096923828	-167.6902770996094	41.82199096679688	-225.2223358154297	-210.9774475097656	33.28254699707031	-112.0745697021484	-381.6181640625	73.08132171630859	-191.3650665283203	nan	nan	nan	nan	nan	nan	
264	2.63	-91.17247009277344	1002.627014160156	-157.6774291992188	-83.36363220214844	996.4271850585938	-276.0195007324219	-87.81983947753906	1091.326416015625	-223.7037200927734	172.6254425048828	1273.33837890625	-224.5336608886719	-90.04660797119141	1219.446411132812	-212.5897674560547	-16.81221961975098	1477.174560546875	-208.4531097412109	148.7456207275391	1392.320068359375	-218.4514007568359	-94.77847290039062	1341.205322265625	-132.2385101318359	-43.12909317016602	1448.49560546875	-316.1891174316406	43.5626220703125	1450.709228515625	-377.4200134277344	-18.91641235351562	1347.926635742188	-456.7322387695312	-72.57802581787109	1154.217407226562	-505.080322265625	-132.7335510253906	1146.670288085938	-440.391357421875	-39.71073150634766	899.1646118164062	-505.3784484863281	-90.42648315429688	904.1932373046875	-572.4014892578125	-85.42440795898438	1049.802368164062	-536.9266967773438	-108.0451431274414	715.7467651367188	-528.9380493164062	-105.051139831543	815.6072998046875	-580.0892944335938	-50.97405624389648	795.971435546875	-543.5697631835938	47.89870834350586	1435.212890625	-47.27187347412109	36.67563629150391	1372.837280273438	21.91084861755371	66.79349517822266	1098.834228515625	84.98081207275391	16.67905426025391	1077.551635742188	4.8849196434021	247.7965545654297	934.3235473632812	5.785719394683838	220.0064392089844	905.58056640625	80.10182189941406	114.1905288696289	1039.85205078125	91.14875793457031	318.2799987792969	762.4868774414062	-14.23283100128174	331.3512268066406	837.7581787109375	8.268834114074707	295.100341796875	820.0701293945312	68.24995422363281	10.0867280960083	1623.36376953125	-162.5697937011719	213.0384368896484	1674.823486328125	-250.74755859375	209.5923004150391	1671.904296875	-150.9064788818359	58.43640899658203	1634.499145507812	-293.6072998046875	33.60233306884766	934.2562866210938	-401.4566955566406	-4.747659206390381	968.7828369140625	-39.46175765991211	96.48580169677734	1008.432312011719	-67.20402526855469	125.1623382568359	982.78466796875	-343.5791931152344	259.8452758789062	505.2424926757812	-357.9085388183594	184.3615264892578	627.2171020507812	-397.1730041503906	399.1716003417969	34.43840789794922	-340.6024475097656	311.9224853515625	282.7513122558594	-361.3088684082031	579.5576171875	137.5297698974609	-283.7935791015625	520.4280395507812	106.8300704956055	-241.5520324707031	516.3668212890625	78.95201873779297	-350.6114196777344	334.2814636230469	24.88544845581055	-293.72607421875	-78.55363464355469	493.4873352050781	-84.78720855712891	17.61478233337402	742.851806640625	-29.3094367980957	-316.9811096191406	56.3785400390625	-136.1044006347656	-114.4379196166992	376.5809936523438	-110.5425186157227	-110.8854904174805	38.09886932373047	-186.8677215576172	-167.2105560302734	42.55480194091797	-224.9052886962891	-210.3758850097656	33.30843734741211	-111.898681640625	-380.4622192382812	77.55231475830078	-190.1808929443359	nan	nan	nan	nan	nan	nan	
265	2.64	-77.62882995605469	1000.817504882812	-158.8332977294922	-69.96871185302734	994.743896484375	-277.242431640625	-74.55821990966797	1089.14990234375	-224.8662567138672	185.0751953125	1271.907958984375	-225.6363677978516	-77.30945587158203	1217.208618164062	-213.9377136230469	-5.117841243743896	1475.207153320312	-210.2252502441406	160.7943420410156	1390.785522460938	-219.8559875488281	-82.69890594482422	1339.081909179688	-133.8643341064453	-31.25658226013184	1446.108764648438	-317.9489440917969	55.45163726806641	1448.3037109375	-379.1282348632812	-6.60885763168335	1344.934814453125	-458.0899658203125	-59.51107788085938	1150.692138671875	-505.6177978515625	-119.8152847290039	1143.4609375	-441.0658874511719	-27.43337821960449	895.443359375	-504.4116516113281	-77.71150207519531	900.3897705078125	-571.7542114257812	-72.369140625	1046.145263671875	-536.9564208984375	-97.57490539550781	712.4929809570312	-527.0757446289062	-93.02785491943359	811.8966064453125	-578.9166870117188	-39.32712936401367	792.023193359375	-541.8837890625	59.54509735107422	1433.627807617188	-48.80743789672852	48.27909851074219	1371.17138671875	20.3992977142334	78.14717102050781	1097.105712890625	83.36432647705078	28.22198867797852	1075.865234375	2.963549375534058	259.3090515136719	932.6241455078125	4.088203907012939	231.4600524902344	903.81884765625	78.35430145263672	125.5583114624023	1038.085693359375	89.55951690673828	329.8699035644531	760.704833984375	-15.93156719207764	342.7659606933594	836.0181884765625	6.547561645507812	306.5052185058594	818.3148803710938	66.50613403320312	21.59534454345703	1621.868530273438	-164.4209442138672	224.5945129394531	1673.3056640625	-252.5069122314453	221.0682983398438	1670.523559570312	-152.6470642089844	70.02617645263672	1632.866455078125	-295.4326782226562	47.43865585327148	932.6952514648438	-402.3452758789062	8.439398765563965	966.88037109375	-40.4344482421875	109.7559661865234	1006.673095703125	-67.78255462646484	138.6839904785156	981.094970703125	-344.2294006347656	274.9964294433594	504.7049865722656	-356.5657043457031	199.4245300292969	626.19384765625	-396.4488830566406	405.8343505859375	32.39861679077148	-338.7654418945312	324.5342102050781	281.1578979492188	-359.2969665527344	588.9593505859375	128.6031799316406	-278.881591796875	528.0169067382812	99.65023040771484	-237.3192749023438	524.52294921875	72.17906951904297	-346.3750915527344	340.0193481445312	25.25836181640625	-292.4225769042969	-69.21834564208984	492.7679443359375	-84.72193145751953	29.50460052490234	741.2990112304688	-29.97278213500977	-315.8216552734375	59.15934371948242	-135.1458129882812	-106.9469757080078	376.2108459472656	-110.212158203125	-110.7102661132812	38.06037521362305	-186.7132873535156	-166.6395568847656	43.33845520019531	-224.6068725585938	-209.6560363769531	33.39252471923828	-111.7439117431641	-379.0335083007812	82.41754913330078	-188.8598022460938	nan	nan	nan	nan	nan	nan	
